<mxfile host="app.diagrams.net" modified="2023-02-27T16:47:54.963Z" agent="5.0 (Macintosh; Intel Mac OS X 10_15_7) AppleWebKit/537.36 (KHTML, like Gecko) Chrome/109.0.0.0 Safari/537.36" etag="YjYLmxYR8-6RduxHIh_5" version="20.8.20" type="github">
  <diagram name="‫עמוד-1‬" id="qi8N1jVwXG6zuJL_99tc">
    <mxGraphModel dx="1972" dy="658" grid="1" gridSize="10" guides="1" tooltips="1" connect="1" arrows="1" fold="1" page="1" pageScale="1" pageWidth="850" pageHeight="1100" background="#4D4D4D" math="0" shadow="0">
      <root>
        <mxCell id="0" />
        <mxCell id="1" parent="0" />
        <mxCell id="ImCbX07-H54w_GsQOJgO-1" value="Google Firebase DB" style="swimlane;whiteSpace=wrap;html=1;strokeColor=#FFFFFF;strokeWidth=4;" vertex="1" parent="1">
          <mxGeometry x="510" y="20" width="330" height="430" as="geometry" />
        </mxCell>
        <mxCell id="ImCbX07-H54w_GsQOJgO-2" value="Vertical Container" style="swimlane;whiteSpace=wrap;html=1;strokeColor=#FFFFFF;strokeWidth=4;" vertex="1" parent="ImCbX07-H54w_GsQOJgO-1">
          <mxGeometry x="20" y="41" width="110" height="90" as="geometry" />
        </mxCell>
        <mxCell id="ImCbX07-H54w_GsQOJgO-3" value="Vertical Container" style="swimlane;whiteSpace=wrap;html=1;strokeColor=#FFFFFF;strokeWidth=4;" vertex="1" parent="1">
          <mxGeometry x="550" y="71" width="110" height="90" as="geometry" />
        </mxCell>
        <mxCell id="ImCbX07-H54w_GsQOJgO-4" value="Vertical Container" style="swimlane;whiteSpace=wrap;html=1;strokeColor=#FFFFFF;strokeWidth=4;" vertex="1" parent="1">
          <mxGeometry x="560" y="81" width="110" height="90" as="geometry" />
        </mxCell>
        <mxCell id="ImCbX07-H54w_GsQOJgO-5" value="User" style="swimlane;whiteSpace=wrap;html=1;strokeColor=#FFFFFF;strokeWidth=4;" vertex="1" parent="1">
          <mxGeometry x="570" y="91" width="110" height="90" as="geometry" />
        </mxCell>
        <mxCell id="ImCbX07-H54w_GsQOJgO-26" value="Vertical Container" style="swimlane;whiteSpace=wrap;html=1;strokeColor=#FFFFFF;strokeWidth=4;" vertex="1" parent="1">
          <mxGeometry x="689" y="61" width="110" height="90" as="geometry" />
        </mxCell>
        <mxCell id="ImCbX07-H54w_GsQOJgO-27" value="Vertical Container" style="swimlane;whiteSpace=wrap;html=1;strokeColor=#FFFFFF;strokeWidth=4;" vertex="1" parent="1">
          <mxGeometry x="699" y="71" width="110" height="90" as="geometry" />
        </mxCell>
        <mxCell id="ImCbX07-H54w_GsQOJgO-28" value="Vertical Container" style="swimlane;whiteSpace=wrap;html=1;strokeColor=#FFFFFF;strokeWidth=4;" vertex="1" parent="1">
          <mxGeometry x="709" y="81" width="110" height="90" as="geometry" />
        </mxCell>
        <mxCell id="ImCbX07-H54w_GsQOJgO-29" value="Item" style="swimlane;whiteSpace=wrap;html=1;strokeColor=#FFFFFF;strokeWidth=4;" vertex="1" parent="1">
          <mxGeometry x="719" y="91" width="110" height="90" as="geometry" />
        </mxCell>
        <mxCell id="ImCbX07-H54w_GsQOJgO-30" value="Vertical Container" style="swimlane;whiteSpace=wrap;html=1;strokeColor=#FFFFFF;strokeWidth=4;" vertex="1" parent="1">
          <mxGeometry x="540" y="206" width="110" height="90" as="geometry" />
        </mxCell>
        <mxCell id="ImCbX07-H54w_GsQOJgO-31" value="Vertical Container" style="swimlane;whiteSpace=wrap;html=1;strokeColor=#FFFFFF;strokeWidth=4;" vertex="1" parent="1">
          <mxGeometry x="550" y="216" width="110" height="90" as="geometry" />
        </mxCell>
        <mxCell id="ImCbX07-H54w_GsQOJgO-32" value="Vertical Container" style="swimlane;whiteSpace=wrap;html=1;strokeColor=#FFFFFF;strokeWidth=4;" vertex="1" parent="1">
          <mxGeometry x="560" y="226" width="110" height="90" as="geometry" />
        </mxCell>
        <mxCell id="ImCbX07-H54w_GsQOJgO-33" value="ShoppingCart" style="swimlane;whiteSpace=wrap;html=1;strokeColor=#FFFFFF;strokeWidth=4;" vertex="1" parent="1">
          <mxGeometry x="570" y="236" width="110" height="90" as="geometry" />
        </mxCell>
        <mxCell id="ImCbX07-H54w_GsQOJgO-34" value="Vertical Container" style="swimlane;whiteSpace=wrap;html=1;strokeColor=#FFFFFF;strokeWidth=4;" vertex="1" parent="1">
          <mxGeometry x="689" y="206" width="110" height="90" as="geometry" />
        </mxCell>
        <mxCell id="ImCbX07-H54w_GsQOJgO-35" value="Vertical Container" style="swimlane;whiteSpace=wrap;html=1;strokeColor=#FFFFFF;strokeWidth=4;" vertex="1" parent="1">
          <mxGeometry x="699" y="216" width="110" height="90" as="geometry" />
        </mxCell>
        <mxCell id="ImCbX07-H54w_GsQOJgO-36" value="Vertical Container" style="swimlane;whiteSpace=wrap;html=1;strokeColor=#FFFFFF;strokeWidth=4;" vertex="1" parent="1">
          <mxGeometry x="709" y="226" width="110" height="90" as="geometry" />
        </mxCell>
        <mxCell id="ImCbX07-H54w_GsQOJgO-37" value="Course" style="swimlane;whiteSpace=wrap;html=1;strokeColor=#FFFFFF;strokeWidth=4;" vertex="1" parent="1">
          <mxGeometry x="719" y="236" width="110" height="90" as="geometry" />
        </mxCell>
        <mxCell id="ImCbX07-H54w_GsQOJgO-125" style="edgeStyle=orthogonalEdgeStyle;rounded=0;orthogonalLoop=1;jettySize=auto;html=1;exitX=0.75;exitY=1;exitDx=0;exitDy=0;entryX=0.627;entryY=0.002;entryDx=0;entryDy=0;entryPerimeter=0;fontSize=14;fontColor=#4D4D4D;strokeColor=#FFFFFF;strokeWidth=2;" edge="1" parent="1" source="ImCbX07-H54w_GsQOJgO-39">
          <mxGeometry relative="1" as="geometry">
            <mxPoint x="489.28999999999996" y="490.28" as="targetPoint" />
          </mxGeometry>
        </mxCell>
        <mxCell id="ImCbX07-H54w_GsQOJgO-127" style="edgeStyle=orthogonalEdgeStyle;rounded=0;orthogonalLoop=1;jettySize=auto;html=1;entryX=0.5;entryY=0;entryDx=0;entryDy=0;strokeColor=#FFFFFF;strokeWidth=2;fontSize=14;fontColor=#4D4D4D;" edge="1" parent="1">
          <mxGeometry relative="1" as="geometry">
            <mxPoint x="455" y="360" as="sourcePoint" />
            <mxPoint x="455" y="490" as="targetPoint" />
            <Array as="points">
              <mxPoint x="455" y="350" />
            </Array>
          </mxGeometry>
        </mxCell>
        <mxCell id="ImCbX07-H54w_GsQOJgO-39" value="" style="swimlane;startSize=0;strokeColor=#FFFFFF;strokeWidth=4;" vertex="1" parent="1">
          <mxGeometry x="515" y="360" width="320" height="70" as="geometry" />
        </mxCell>
        <mxCell id="ImCbX07-H54w_GsQOJgO-40" value="&lt;font style=&quot;font-size: 29px;&quot; color=&quot;#ffffff&quot;&gt;CRUD&lt;/font&gt;" style="text;html=1;align=center;verticalAlign=middle;resizable=0;points=[];autosize=1;strokeColor=none;fillColor=none;" vertex="1" parent="ImCbX07-H54w_GsQOJgO-39">
          <mxGeometry x="105" y="10" width="110" height="50" as="geometry" />
        </mxCell>
        <mxCell id="ImCbX07-H54w_GsQOJgO-41" value="&lt;font color=&quot;#4d4d4d&quot; style=&quot;font-size: 21px;&quot;&gt;Website&lt;/font&gt;" style="swimlane;whiteSpace=wrap;html=1;strokeColor=#FFFFFF;strokeWidth=4;fontSize=29;fontColor=#FFFFFF;" vertex="1" parent="1">
          <mxGeometry x="-180" y="40" width="540" height="520" as="geometry" />
        </mxCell>
        <mxCell id="ImCbX07-H54w_GsQOJgO-94" value="" style="swimlane;startSize=0;strokeColor=#FFFFFF;strokeWidth=4;fontSize=21;fontColor=#4D4D4D;" vertex="1" parent="ImCbX07-H54w_GsQOJgO-41">
          <mxGeometry x="10" y="40" width="520" height="64" as="geometry" />
        </mxCell>
        <mxCell id="ImCbX07-H54w_GsQOJgO-95" value="&lt;font color=&quot;#ffffff&quot;&gt;Navbar&lt;/font&gt;" style="text;html=1;align=center;verticalAlign=middle;resizable=0;points=[];autosize=1;strokeColor=none;fillColor=none;fontSize=21;fontColor=#4D4D4D;" vertex="1" parent="ImCbX07-H54w_GsQOJgO-94">
          <mxGeometry x="234" y="1" width="90" height="40" as="geometry" />
        </mxCell>
        <mxCell id="ImCbX07-H54w_GsQOJgO-96" value="" style="swimlane;startSize=0;strokeColor=#FFFFFF;strokeWidth=4;fontSize=21;fontColor=#FFFFFF;" vertex="1" parent="ImCbX07-H54w_GsQOJgO-94">
          <mxGeometry x="15" y="11" width="65" height="29" as="geometry" />
        </mxCell>
        <mxCell id="ImCbX07-H54w_GsQOJgO-98" value="" style="rounded=1;whiteSpace=wrap;html=1;strokeColor=#FFFFFF;strokeWidth=4;fontSize=21;fontColor=#FFFFFF;" vertex="1" parent="ImCbX07-H54w_GsQOJgO-94">
          <mxGeometry x="480" y="14" width="30" height="20" as="geometry" />
        </mxCell>
        <mxCell id="ImCbX07-H54w_GsQOJgO-107" value="&lt;font style=&quot;font-size: 19px;&quot; color=&quot;#4d4d4d&quot;&gt;Login&lt;/font&gt;" style="rounded=1;whiteSpace=wrap;html=1;strokeColor=#FFFFFF;strokeWidth=4;fontSize=29;fontColor=#FFFFFF;" vertex="1" parent="ImCbX07-H54w_GsQOJgO-94">
          <mxGeometry x="100" y="15" width="55" height="19" as="geometry" />
        </mxCell>
        <mxCell id="ImCbX07-H54w_GsQOJgO-108" value="&lt;font style=&quot;font-size: 19px;&quot; color=&quot;#4d4d4d&quot;&gt;Cart&lt;/font&gt;" style="rounded=1;whiteSpace=wrap;html=1;strokeColor=#FFFFFF;strokeWidth=4;fontSize=29;fontColor=#FFFFFF;" vertex="1" parent="ImCbX07-H54w_GsQOJgO-94">
          <mxGeometry x="170" y="15.5" width="55" height="19" as="geometry" />
        </mxCell>
        <mxCell id="ImCbX07-H54w_GsQOJgO-109" value="1" style="ellipse;whiteSpace=wrap;html=1;aspect=fixed;strokeColor=#FFFFFF;strokeWidth=1;fontSize=19;fontColor=#4D4D4D;dashed=1;" vertex="1" parent="ImCbX07-H54w_GsQOJgO-94">
          <mxGeometry x="216" y="3" width="17" height="17" as="geometry" />
        </mxCell>
        <mxCell id="ImCbX07-H54w_GsQOJgO-102" value="" style="swimlane;startSize=0;strokeColor=#FFFFFF;strokeWidth=4;fontSize=21;fontColor=#FFFFFF;" vertex="1" parent="ImCbX07-H54w_GsQOJgO-41">
          <mxGeometry x="60" y="111" width="420" height="200" as="geometry" />
        </mxCell>
        <mxCell id="ImCbX07-H54w_GsQOJgO-103" value="&lt;font style=&quot;font-size: 29px;&quot;&gt;Image Galery&lt;/font&gt;" style="text;html=1;align=center;verticalAlign=middle;resizable=0;points=[];autosize=1;strokeColor=none;fillColor=none;fontSize=21;fontColor=#FFFFFF;" vertex="1" parent="ImCbX07-H54w_GsQOJgO-102">
          <mxGeometry x="110" y="75" width="200" height="50" as="geometry" />
        </mxCell>
        <mxCell id="ImCbX07-H54w_GsQOJgO-110" value="" style="swimlane;startSize=0;strokeColor=#FFFFFF;strokeWidth=4;fontSize=14;fontColor=#4D4D4D;" vertex="1" parent="ImCbX07-H54w_GsQOJgO-41">
          <mxGeometry x="60" y="320" width="420" height="90" as="geometry" />
        </mxCell>
        <mxCell id="ImCbX07-H54w_GsQOJgO-112" value="" style="swimlane;startSize=0;strokeColor=#FFFFFF;strokeWidth=4;fontSize=14;fontColor=#4D4D4D;" vertex="1" parent="ImCbX07-H54w_GsQOJgO-110">
          <mxGeometry x="66" y="15" width="60" height="60" as="geometry" />
        </mxCell>
        <mxCell id="ImCbX07-H54w_GsQOJgO-121" value="&amp;lt;" style="text;html=1;align=center;verticalAlign=middle;resizable=0;points=[];autosize=1;strokeColor=none;fillColor=none;fontSize=29;fontColor=#FFFFFF;" vertex="1" parent="ImCbX07-H54w_GsQOJgO-110">
          <mxGeometry y="20" width="40" height="50" as="geometry" />
        </mxCell>
        <mxCell id="ImCbX07-H54w_GsQOJgO-122" value="&amp;gt;" style="text;html=1;align=center;verticalAlign=middle;resizable=0;points=[];autosize=1;strokeColor=none;fillColor=none;fontSize=29;fontColor=#FFFFFF;" vertex="1" parent="ImCbX07-H54w_GsQOJgO-110">
          <mxGeometry x="380" y="20" width="40" height="50" as="geometry" />
        </mxCell>
        <mxCell id="ImCbX07-H54w_GsQOJgO-111" value="" style="swimlane;startSize=0;strokeColor=#FFFFFF;strokeWidth=4;fontSize=14;fontColor=#4D4D4D;" vertex="1" parent="ImCbX07-H54w_GsQOJgO-41">
          <mxGeometry x="60" y="420" width="420" height="90" as="geometry" />
        </mxCell>
        <mxCell id="ImCbX07-H54w_GsQOJgO-120" value="&amp;lt;" style="text;html=1;align=center;verticalAlign=middle;resizable=0;points=[];autosize=1;strokeColor=none;fillColor=none;fontSize=29;fontColor=#FFFFFF;" vertex="1" parent="ImCbX07-H54w_GsQOJgO-111">
          <mxGeometry y="21" width="40" height="50" as="geometry" />
        </mxCell>
        <mxCell id="ImCbX07-H54w_GsQOJgO-123" value="&amp;gt;" style="text;html=1;align=center;verticalAlign=middle;resizable=0;points=[];autosize=1;strokeColor=none;fillColor=none;fontSize=29;fontColor=#FFFFFF;" vertex="1" parent="ImCbX07-H54w_GsQOJgO-111">
          <mxGeometry x="380" y="21" width="40" height="50" as="geometry" />
        </mxCell>
        <mxCell id="ImCbX07-H54w_GsQOJgO-97" value="LOGO" style="text;html=1;align=center;verticalAlign=middle;resizable=0;points=[];autosize=1;strokeColor=none;fillColor=none;fontSize=21;fontColor=#FFFFFF;" vertex="1" parent="1">
          <mxGeometry x="-160" y="90" width="80" height="40" as="geometry" />
        </mxCell>
        <mxCell id="ImCbX07-H54w_GsQOJgO-99" value="" style="rounded=1;whiteSpace=wrap;html=1;strokeColor=#FFFFFF;strokeWidth=4;fontSize=21;fontColor=#FFFFFF;" vertex="1" parent="1">
          <mxGeometry x="268" y="94" width="30" height="20" as="geometry" />
        </mxCell>
        <mxCell id="ImCbX07-H54w_GsQOJgO-100" value="&lt;font style=&quot;font-size: 14px;&quot; color=&quot;#4d4d4d&quot;&gt;Online Courses&lt;/font&gt;" style="rounded=1;whiteSpace=wrap;html=1;strokeColor=#FFFFFF;strokeWidth=4;fontSize=21;fontColor=#FFFFFF;" vertex="1" parent="1">
          <mxGeometry x="150" y="94" width="105" height="20" as="geometry" />
        </mxCell>
        <mxCell id="ImCbX07-H54w_GsQOJgO-105" value="&amp;lt;" style="text;html=1;align=center;verticalAlign=middle;resizable=0;points=[];autosize=1;strokeColor=none;fillColor=none;fontSize=29;fontColor=#FFFFFF;" vertex="1" parent="1">
          <mxGeometry x="-110" y="225" width="40" height="50" as="geometry" />
        </mxCell>
        <mxCell id="ImCbX07-H54w_GsQOJgO-106" value="&amp;gt;" style="text;html=1;align=center;verticalAlign=middle;resizable=0;points=[];autosize=1;strokeColor=none;fillColor=none;fontSize=29;fontColor=#FFFFFF;" vertex="1" parent="1">
          <mxGeometry x="260" y="225" width="40" height="50" as="geometry" />
        </mxCell>
        <mxCell id="ImCbX07-H54w_GsQOJgO-113" value="" style="swimlane;startSize=0;strokeColor=#FFFFFF;strokeWidth=4;fontSize=14;fontColor=#4D4D4D;" vertex="1" parent="1">
          <mxGeometry x="22" y="375" width="60" height="60" as="geometry" />
        </mxCell>
        <mxCell id="ImCbX07-H54w_GsQOJgO-114" value="" style="swimlane;startSize=0;strokeColor=#FFFFFF;strokeWidth=4;fontSize=14;fontColor=#4D4D4D;" vertex="1" parent="1">
          <mxGeometry x="98" y="375" width="60" height="60" as="geometry" />
        </mxCell>
        <mxCell id="ImCbX07-H54w_GsQOJgO-115" value="" style="swimlane;startSize=0;strokeColor=#FFFFFF;strokeWidth=4;fontSize=14;fontColor=#4D4D4D;" vertex="1" parent="1">
          <mxGeometry x="174" y="375" width="60" height="60" as="geometry" />
        </mxCell>
        <mxCell id="ImCbX07-H54w_GsQOJgO-116" value="" style="swimlane;startSize=0;strokeColor=#FFFFFF;strokeWidth=4;fontSize=14;fontColor=#4D4D4D;" vertex="1" parent="1">
          <mxGeometry x="-54" y="476" width="60" height="60" as="geometry" />
        </mxCell>
        <mxCell id="ImCbX07-H54w_GsQOJgO-117" value="" style="swimlane;startSize=0;strokeColor=#FFFFFF;strokeWidth=4;fontSize=14;fontColor=#4D4D4D;" vertex="1" parent="1">
          <mxGeometry x="22" y="476" width="60" height="60" as="geometry" />
        </mxCell>
        <mxCell id="ImCbX07-H54w_GsQOJgO-118" value="" style="swimlane;startSize=0;strokeColor=#FFFFFF;strokeWidth=4;fontSize=14;fontColor=#4D4D4D;" vertex="1" parent="1">
          <mxGeometry x="98" y="476" width="60" height="60" as="geometry" />
        </mxCell>
        <mxCell id="ImCbX07-H54w_GsQOJgO-119" value="" style="swimlane;startSize=0;strokeColor=#FFFFFF;strokeWidth=4;fontSize=14;fontColor=#4D4D4D;" vertex="1" parent="1">
          <mxGeometry x="174" y="476" width="60" height="60" as="geometry" />
        </mxCell>
        <mxCell id="ImCbX07-H54w_GsQOJgO-129" style="edgeStyle=orthogonalEdgeStyle;rounded=0;orthogonalLoop=1;jettySize=auto;html=1;exitX=0.322;exitY=-0.015;exitDx=0;exitDy=0;entryX=0.083;entryY=1.143;entryDx=0;entryDy=0;entryPerimeter=0;strokeColor=#FFFFFF;strokeWidth=2;fontSize=14;fontColor=#4D4D4D;exitPerimeter=0;" edge="1" parent="1" target="ImCbX07-H54w_GsQOJgO-39">
          <mxGeometry relative="1" as="geometry">
            <mxPoint x="406.94000000000005" y="487.9000000000001" as="sourcePoint" />
            <Array as="points">
              <mxPoint x="407" y="490" />
              <mxPoint x="410" y="490" />
            </Array>
          </mxGeometry>
        </mxCell>
      </root>
    </mxGraphModel>
  </diagram>
</mxfile>
